<svg width="270" height="171" viewBox="0 0 270 171" fill="none" xmlns="http://www.w3.org/2000/svg">
    <path
        d="M251.688 168.927H22.7832L51.9269 50.0808C65.0994 20.5696 94.699 0 129.095 0C163.491 0 193.094 20.5668 206.263 50.0808C206.264 50.084 206.264 50.0874 206.263 50.0906L251.688 168.927Z"
        fill="#EFDFC0" />
    <path
        d="M108.168 91.6504H114.702L167.959 98.5242C170.794 99.025 171.254 102.469 168.616 103.621L121.552 126.306C112.933 131.301 114.907 143.196 124.622 145.402L228.191 168.928H59.2459L58.6848 168.167C43.5539 147.371 48.9604 122.608 74.1341 117.319L151.198 101.763C152.242 101.552 152.235 100.058 151.188 99.8583L108.168 91.6504Z"
        fill="#F5EFD9" />
    <path
        d="M158.453 90.8808C165.435 90.8808 171.095 80.8575 171.095 68.4931C171.095 56.1288 165.435 46.1055 158.453 46.1055C151.471 46.1055 145.811 56.1288 145.811 68.4931C145.811 80.8575 151.471 90.8808 158.453 90.8808Z"
        fill="#F5EFD9" />
    <path
        d="M199.894 91.6504H173.462C173.462 88.0718 177.33 85.1708 182.101 85.1708C182.95 85.1688 183.797 85.263 184.626 85.4514C186.209 83.3275 188.591 81.9766 191.257 81.9766C196.026 81.978 199.894 86.3085 199.894 91.6504Z"
        fill="#F5EFD9" />
    <path
        d="M128.498 47.1388C134.902 40.7357 134.902 30.3542 128.498 23.9511C122.095 17.5479 111.714 17.5479 105.311 23.9511C98.9075 30.3542 98.9075 40.7357 105.311 47.1388C111.714 53.5419 122.095 53.5419 128.498 47.1388Z"
        fill="white" />
    <path
        d="M116.475 44.7769H77.9609C77.9609 41.3624 81.468 38.5933 85.7971 38.5933C86.74 38.5907 87.6782 38.7264 88.5817 38.9959C90.0168 36.8916 92.2206 35.5449 94.691 35.5449C98.4001 35.5449 101.507 38.582 102.32 42.66C103.745 41.657 106.045 40.863 108.632 40.863C112.967 40.863 116.475 43.0669 116.475 44.7769Z"
        fill="#F5EFD9" />
    <path d="M132.08 62.1406L133.268 64.1298L134.499 62.1406" stroke="#42A5F5"
        stroke-width="1.79893" stroke-miterlimit="10" stroke-linecap="round" />
    <path d="M165.765 64.1289H132.931L119.654 91.6495H152.49L165.765 64.1289Z" fill="white" />
    <path d="M179.441 91.6495H152.49L165.765 64.1289H165.875L179.441 91.6495Z" fill="#A0D6FF" />
    <path d="M119.439 91.6506V88.7285" stroke="#42A5F5" stroke-width="1.79893"
        stroke-miterlimit="10" />
    <path d="M152.366 91.6506V88.7285" stroke="#42A5F5" stroke-width="1.79893"
        stroke-miterlimit="10" />
    <path d="M179.482 91.6506V88.7285" stroke="#06612E" stroke-width="1.79893"
        stroke-miterlimit="10" />
    <path d="M164.792 61.9238L165.98 63.9144L167.21 61.9238" stroke="#06612E" stroke-width="1.79893"
        stroke-linecap="round" stroke-linejoin="round" />
    <path
        d="M170.009 91.6511H160.47C163.034 90.3269 165.232 88.3921 166.871 86.0172C168.51 83.6424 169.54 80.9007 169.869 78.0339L170.017 76.7461L170.009 91.6511Z"
        fill="#06612E" />
    <path d="M170.222 91.6511V76.7461" stroke="#06612E" stroke-width="1.79893"
        stroke-miterlimit="10" />
    <path d="M160.755 91.6503V77.3906" stroke="#06612E" stroke-width="1.79893"
        stroke-miterlimit="10" />
    <path d="M78.0625 62.1406L79.2507 64.1298L80.481 62.1406" stroke="#42A5F5"
        stroke-width="1.79893" stroke-miterlimit="10" stroke-linecap="round" />
    <path d="M111.749 64.1289H78.9136L65.6387 91.6495H98.4746L111.749 64.1289Z" fill="white" />
    <path d="M125.424 91.6495H98.4727L111.748 64.1289H111.857L125.424 91.6495Z" fill="#A0D6FF" />
    <path d="M65.4219 91.6506V88.7285" stroke="#42A5F5" stroke-width="1.79893"
        stroke-miterlimit="10" />
    <path d="M98.3496 91.6506V88.7285" stroke="#42A5F5" stroke-width="1.79893"
        stroke-miterlimit="10" />
    <path d="M125.463 91.6506V88.7285" stroke="#06612E" stroke-width="1.79893"
        stroke-miterlimit="10" />
    <path d="M110.559 62.1406L111.747 64.1298L112.977 62.1406" stroke="#06612E"
        stroke-width="1.79893" stroke-miterlimit="10" stroke-linecap="round" />
    <path d="M115.989 76.7461H108.17V91.6511H115.989V76.7461Z" fill="#B4702F" />
    <path
        d="M115.693 77.3898H108.502V74.9629H115.693C116.015 74.9629 116.323 75.0907 116.551 75.3183C116.778 75.5459 116.906 75.8545 116.906 76.1763C116.906 76.4982 116.778 76.8068 116.551 77.0344C116.323 77.2619 116.015 77.3898 115.693 77.3898Z"
        fill="white" />
    <path
        d="M109.873 76.4507C110.027 75.7985 109.623 75.1449 108.971 74.991C108.319 74.837 107.665 75.241 107.511 75.8932C107.357 76.5455 107.761 77.199 108.413 77.353C109.066 77.5069 109.719 77.1029 109.873 76.4507Z"
        fill="#42A5F5" />
    <path
        d="M197.091 116.337L194.457 139.734H167.739L168.2 118.502L161.221 116.135C160.508 115.893 159.88 115.45 159.413 114.859C158.946 114.268 158.661 113.554 158.591 112.804L158.518 111.997C158.505 111.853 158.522 111.707 158.568 111.57C158.614 111.433 158.688 111.307 158.786 111.2C158.883 111.093 159.002 111.007 159.134 110.948C159.267 110.89 159.41 110.86 159.555 110.859H180.512C181.784 110.86 183.044 111.114 184.217 111.608C185.39 112.101 186.452 112.824 187.342 113.734L189.844 116.337H197.091Z"
        fill="#FFAFB1" />
    <path
        d="M170.951 144.947L176.208 107.594C176.516 105.395 177.609 103.382 179.284 101.924C180.96 100.467 183.105 99.6645 185.326 99.6641"
        stroke="white" stroke-width="3.45155" stroke-linecap="round" stroke-linejoin="round" />
    <path
        d="M177.511 131.458V131.54C177.512 131.896 177.442 132.249 177.306 132.577C177.17 132.906 176.971 133.205 176.72 133.457C176.468 133.708 176.169 133.908 175.841 134.044C175.512 134.18 175.16 134.25 174.804 134.249H173.374C174.092 134.249 174.78 134.534 175.287 135.041C175.794 135.549 176.079 136.237 176.079 136.954V137.037C176.079 137.754 175.793 138.441 175.286 138.948C174.779 139.455 174.091 139.74 173.374 139.74H165.983C165.325 139.74 164.695 139.479 164.23 139.014C163.764 138.549 163.503 137.919 163.503 137.261V136.73C163.503 136.072 163.764 135.441 164.229 134.976C164.695 134.511 165.325 134.25 165.983 134.249H164.183C163.857 134.249 163.535 134.186 163.234 134.061C162.933 133.937 162.66 133.754 162.429 133.524C162.199 133.294 162.016 133.02 161.892 132.719C161.767 132.419 161.703 132.096 161.703 131.771V131.239C161.703 130.581 161.964 129.95 162.429 129.485C162.894 129.02 163.525 128.759 164.183 128.759H162.887C162.229 128.759 161.599 128.498 161.134 128.033C160.668 127.568 160.407 126.937 160.407 126.28V125.748C160.407 125.091 160.668 124.46 161.133 123.995C161.598 123.53 162.229 123.268 162.887 123.268H161.734C161.076 123.268 160.446 123.007 159.981 122.542C159.516 122.077 159.255 121.447 159.255 120.789V120.258C159.255 119.6 159.516 118.969 159.981 118.504C160.446 118.039 161.076 117.778 161.734 117.777H170.663C171.38 117.777 172.068 118.062 172.576 118.569C173.083 119.077 173.368 119.765 173.369 120.482V120.565C173.369 120.92 173.298 121.272 173.162 121.6C173.026 121.928 172.827 122.226 172.576 122.477C172.324 122.728 172.026 122.927 171.698 123.063C171.37 123.198 171.018 123.268 170.663 123.268H172.585C173.302 123.268 173.99 123.553 174.497 124.06C175.004 124.567 175.289 125.255 175.289 125.973V126.055C175.289 126.772 175.004 127.46 174.496 127.967C173.989 128.474 173.302 128.759 172.585 128.759H174.804C175.521 128.758 176.208 129.042 176.716 129.548C177.224 130.054 177.51 130.741 177.511 131.458Z"
        fill="#FFAFB1" />
    <path
        d="M165.985 134.248H173.377C174.094 134.248 174.782 134.533 175.289 135.04C175.797 135.547 176.081 136.235 176.081 136.953V137.034C176.081 137.462 175.979 137.883 175.784 138.264C175.589 138.645 175.306 138.974 174.959 139.224"
        stroke="#06612E" stroke-width="1.72577" stroke-miterlimit="10" stroke-linecap="round" />
    <path
        d="M164.186 128.752H174.804C175.521 128.752 176.209 129.037 176.716 129.544C177.223 130.051 177.508 130.739 177.508 131.457V131.539C177.509 131.895 177.439 132.247 177.303 132.576C177.168 132.904 176.969 133.203 176.717 133.455C176.466 133.706 176.168 133.906 175.84 134.042C175.511 134.178 175.159 134.248 174.804 134.248H165.72"
        stroke="#06612E" stroke-width="1.79893" stroke-miterlimit="10" stroke-linecap="round" />
    <path
        d="M165.042 123.262H172.587C173.305 123.262 173.993 123.547 174.5 124.054C175.007 124.561 175.292 125.249 175.292 125.966V126.049C175.292 126.766 175.006 127.454 174.499 127.961C173.992 128.468 173.304 128.752 172.587 128.752H164.423"
        stroke="#06612E" stroke-width="1.79893" stroke-miterlimit="10" stroke-linecap="round" />
    <path
        d="M166.966 117.77H170.666C171.384 117.77 172.071 118.055 172.579 118.562C173.086 119.069 173.371 119.757 173.371 120.474V120.557C173.371 121.274 173.086 121.962 172.578 122.468C172.071 122.975 171.384 123.26 170.666 123.26"
        stroke="#06612E" stroke-width="1.79893" stroke-miterlimit="10" stroke-linecap="round" />
    <path
        d="M175.118 126.254C175.25 125.442 174.699 124.678 173.888 124.546C173.076 124.415 172.312 124.966 172.18 125.777C172.048 126.588 172.599 127.353 173.411 127.485C174.222 127.616 174.987 127.065 175.118 126.254Z"
        stroke="#06612E" stroke-width="1.79893" stroke-miterlimit="10" stroke-linecap="round" />
    <path
        d="M172.933 121.57C173.514 120.989 173.514 120.046 172.933 119.465C172.351 118.884 171.409 118.884 170.828 119.465C170.247 120.046 170.247 120.989 170.828 121.57C171.409 122.151 172.351 122.151 172.933 121.57Z"
        stroke="#06612E" stroke-width="1.79893" stroke-miterlimit="10" stroke-linecap="round" />
    <path
        d="M174.593 138.475C175.415 138.475 176.081 137.808 176.081 136.986C176.081 136.164 175.415 135.498 174.593 135.498C173.771 135.498 173.104 136.164 173.104 136.986C173.104 137.808 173.771 138.475 174.593 138.475Z"
        stroke="#06612E" stroke-width="1.79893" stroke-miterlimit="10" stroke-linecap="round" />
    <path
        d="M175.869 132.935C176.738 132.935 177.443 132.23 177.443 131.361C177.443 130.492 176.738 129.787 175.869 129.787C175 129.787 174.295 130.492 174.295 131.361C174.295 132.23 175 132.935 175.869 132.935Z"
        stroke="#06612E" stroke-width="1.79893" stroke-miterlimit="10" stroke-linecap="round" />
    <path
        d="M162.979 111.184C162.986 111.421 162.945 111.656 162.859 111.877C162.773 112.098 162.643 112.3 162.478 112.47C162.313 112.639 162.115 112.775 161.897 112.867C161.678 112.959 161.444 113.007 161.207 113.007C160.97 113.007 160.735 112.959 160.517 112.867C160.298 112.775 160.101 112.639 159.935 112.47C159.77 112.3 159.641 112.098 159.555 111.877C159.469 111.656 159.428 111.421 159.434 111.184"
        stroke="#06612E" stroke-width="1.79893" stroke-miterlimit="10" stroke-linecap="round" />
    <path d="M175.303 123.105C177.578 124.047 181.457 125.015 185.706 123.306" stroke="#06612E"
        stroke-width="1.79893" stroke-miterlimit="10" stroke-linecap="round" />
    <path
        d="M241.234 65.5439L204.416 82.3245L200.31 66.669C202.436 66.8726 204.582 66.6221 206.604 65.9339L234.189 56.6136C234.869 56.3841 235.522 56.0787 236.133 55.7031L241.234 65.5439Z"
        fill="#FFAFB1" />
    <path
        d="M240.707 47.7775C240.656 49.7408 240.003 51.641 238.837 53.2215C237.671 54.8021 236.048 55.9866 234.188 56.6153L206.603 65.9328C204.58 66.6219 202.435 66.8734 200.308 66.6707C193.691 66.0338 187.944 61.0356 186.8 54.0453L182.004 53.588C181.526 53.5426 181.064 53.3907 180.653 53.1435C180.241 52.8962 179.89 52.5598 179.626 52.1591C179.361 51.7584 179.19 51.3035 179.124 50.8278C179.058 50.3521 179.1 49.8678 179.246 49.4104L184.857 31.8751C185.407 28.1845 187.048 24.7428 189.57 21.9927C192.091 19.2427 195.379 17.3102 199.008 16.444L212.305 13.2722C227.206 9.71745 240.3 21.3623 239.889 36.6755L240.707 47.7775Z"
        fill="#FFAFB1" />
    <path d="M232.862 43.5059C232.862 43.5059 227.519 44.6842 228.442 50.311" stroke="#06612E"
        stroke-width="3.59786" stroke-miterlimit="10" stroke-linecap="round" />
    <path d="M233.393 48.35L229.684 45.543" stroke="#06612E" stroke-width="3.59786"
        stroke-miterlimit="10" stroke-linecap="round" />
    <path d="M189.654 44.205C189.654 44.205 190.708 42.0741 195.193 44.4856" stroke="#06612E"
        stroke-width="3.59786" stroke-miterlimit="10" stroke-linecap="round" />
    <path
        d="M196.717 40.353L189.362 39.0217C188.461 38.8585 187.661 38.3438 187.138 37.5908C186.616 36.8377 186.415 35.9081 186.578 35.0064L186.749 34.0595L193.568 35.2938C194.613 35.4829 195.539 36.0791 196.144 36.9514C196.749 37.8236 196.983 38.9004 196.794 39.9449L196.72 40.3494L196.717 40.353Z"
        fill="#06612E" />
    <path
        d="M240.594 45.96C240.209 43.6901 238.948 41.6624 237.082 40.3137C235.216 38.965 232.895 38.4032 230.619 38.7495L230.427 38.7789C228.254 39.1095 226.29 40.259 224.938 41.9916C223.585 43.7241 222.947 45.9085 223.154 48.0965L224.027 57.3285C224.015 58.7932 223.581 60.2235 222.777 61.448C221.973 62.6726 220.834 63.6395 219.494 64.2332L196.034 74.6379C195.082 75.0598 194.04 75.2412 193.002 75.1663C191.963 75.0913 190.959 74.7622 190.077 74.208C189.195 73.6538 188.464 72.8914 187.946 71.9879C187.428 71.0844 187.14 70.0675 187.107 69.0266L186.757 53.8972C187.291 53.8649 187.823 53.8495 188.356 53.8495C193.946 53.8503 199.392 55.6179 203.918 58.8996L205.664 60.1622L213.69 57.1671C218.726 54.5537 218.232 50.4055 217.925 45.7383H217.894L215.6 43.477C213.399 41.3076 211.895 38.53 211.283 35.5005C210.671 32.4709 210.977 29.3275 212.163 26.4734L212.616 25.3806C210.822 26.737 208.684 27.5632 206.444 27.7654C203.515 28.0641 200.579 27.2642 198.207 25.5208C196.458 26.7803 194.404 27.5477 192.259 27.7429C185.975 28.3391 180.434 24.111 179.882 18.2991C179.329 12.4872 183.975 7.28975 190.262 6.69214C193.192 6.39351 196.127 7.1934 198.5 8.93666C200.248 7.67718 202.302 6.90981 204.448 6.71458C207.843 6.39193 211.023 7.47912 213.315 9.46412C215.194 7.88131 217.515 6.91415 219.962 6.69354C225.795 6.13241 230.988 9.74328 232.145 14.9113L234.59 10.4405C234.692 10.2727 234.854 10.1506 235.043 10.0996C235.232 10.0486 235.434 10.0727 235.606 10.1668C235.778 10.261 235.907 10.4178 235.966 10.6047C236.025 10.7916 236.01 10.9941 235.923 11.17L233.162 16.2201C235.282 17.206 237.081 18.7702 238.352 20.7329C239.622 22.6956 240.313 24.9772 240.345 27.3151L240.594 45.96Z"
        fill="#06612E" />
    <path d="M186.912 60.8217C186.912 60.8217 190.015 60.7572 192.648 58.1914" stroke="white"
        stroke-width="2.87962" stroke-linejoin="round" />
    <path
        d="M249.858 168.917L186.404 168.91L190.861 131.285C191.271 129.432 192.246 127.959 194.078 127.461L195.857 126.977C194.889 126.609 194.057 125.955 193.469 125.104C192.882 124.252 192.567 123.242 192.566 122.207C192.566 121.835 192.606 121.463 192.686 121.099L198.742 93.744C199.237 91.4666 200.515 89.4348 202.353 88.0022C202.691 84.4755 204.532 80.6683 207.403 78.6258L236.524 58.3774C239.803 56.0431 243.731 57.0167 245.783 60.4816L249.923 73.657C252.893 75.2617 255.458 77.5242 257.42 80.2715C259.383 83.0189 260.692 86.1784 261.246 89.5089L269.804 144.424C271.532 155.011 260.573 168.918 249.858 168.917Z"
        fill="#42A5F5" />
    <path d="M228.96 73.2362C242.412 65.8882 259.311 73.9741 261.88 89.0881" stroke="white"
        stroke-width="2.87962" stroke-linejoin="round" />
    <path
        d="M213.029 108.879H200.821C199.511 108.879 198.449 109.941 198.449 111.251V118.09C198.449 119.4 199.511 120.462 200.821 120.462H213.029C214.339 120.462 215.401 119.4 215.401 118.09V111.251C215.401 109.941 214.339 108.879 213.029 108.879Z"
        fill="white" />
    <path d="M206.249 106.588V110.93" stroke="#06612E" stroke-width="2.70006" stroke-miterlimit="10" />
    <path d="M211.271 112.713H201.371V114.457H211.271V112.713Z" fill="#A0D6FF" />
    <path d="M206.924 115.52H201.299V117.263H206.924V115.52Z" fill="#A0D6FF" />
    <path d="M193.862 126.816H200.451" stroke="white" stroke-width="2.87962" stroke-linecap="round"
        stroke-linejoin="round" />
    <path
        d="M248.479 168.925H163.353L162.708 146.24L224.885 135.298L218.93 105.713C218.341 102.863 218.394 99.9167 219.085 97.0889C219.775 94.2611 221.087 91.6224 222.923 89.3641C224.76 87.1059 227.076 85.2847 229.704 84.0326C232.332 82.7805 235.206 82.1289 238.117 82.125C246.659 82.125 254.622 87.7644 257.027 96.5671L269.244 141.817C272.935 155.48 262.638 168.925 248.479 168.925Z"
        fill="#A0D6FF" />
    <path d="M234.628 134.645L226.198 134.687L231.753 131.186" stroke="#B4702F"
        stroke-width="2.70006" stroke-miterlimit="10" stroke-linecap="round" />
    <path
        d="M133.04 168.635C131.103 168.624 129.242 167.883 127.827 166.56C122.662 161.735 114.415 154.593 112.153 152.364C112.072 152.284 112.01 152.188 111.97 152.081C111.93 151.975 111.914 151.861 111.922 151.747C111.931 151.634 111.964 151.524 112.019 151.425C112.075 151.326 112.151 151.24 112.243 151.173L112.286 151.141C113.192 150.483 114.297 150.159 115.415 150.223C115.103 149.832 114.83 149.491 114.603 149.21C114.531 149.122 114.479 149.019 114.452 148.909C114.424 148.799 114.421 148.684 114.442 148.572C114.463 148.46 114.508 148.355 114.575 148.262C114.641 148.17 114.727 148.093 114.826 148.037L114.872 148.011C115.702 147.539 116.653 147.323 117.605 147.39C118.558 147.456 119.47 147.802 120.226 148.384L129.004 154.749C129.491 155.124 130.102 155.299 130.714 155.24L142.918 153.837C143.015 153.827 143.105 153.782 143.172 153.711C143.238 153.639 143.276 153.546 143.279 153.449C143.282 153.351 143.249 153.256 143.187 153.181C143.125 153.106 143.037 153.057 142.941 153.041C140.381 152.612 136.753 151.752 134.333 151.32C133.559 151.181 132.837 150.834 132.244 150.317C131.651 149.799 131.209 149.131 130.966 148.383L130.721 146.893L146.137 144.307C151.26 143.492 158.675 142.203 162.711 146.233C164.519 147.662 166.639 151.96 166.884 157.076C167.074 161.022 166.407 164.547 165.235 166.698C164.507 168.032 163.585 168.837 162.552 168.886H162.541L133.04 168.635Z"
        fill="#FFAFB1" />
    <path
        d="M115.006 149.198C115.183 149.056 115.386 148.95 115.604 148.886C115.822 148.822 116.05 148.802 116.276 148.826C116.501 148.851 116.72 148.919 116.919 149.028C117.118 149.137 117.294 149.284 117.436 149.461C117.579 149.638 117.685 149.841 117.748 150.059C117.812 150.277 117.833 150.505 117.808 150.731C117.784 150.957 117.715 151.175 117.606 151.374C117.497 151.574 117.35 151.749 117.173 151.892"
        stroke="#06612E" stroke-width="1.79893" stroke-miterlimit="10" stroke-linecap="round" />
    <path
        d="M134.539 146.604C134.611 147.056 134.5 147.519 134.23 147.89C133.961 148.261 133.555 148.509 133.102 148.581C132.649 148.652 132.187 148.541 131.816 148.272C131.445 148.002 131.197 147.596 131.125 147.144"
        stroke="#06612E" stroke-width="1.79893" stroke-miterlimit="10" stroke-linecap="round" />
    <path
        d="M112.535 152.182C112.86 151.87 113.294 151.697 113.744 151.699C114.194 151.702 114.626 151.88 114.947 152.196C115.268 152.512 115.453 152.941 115.463 153.391C115.473 153.841 115.307 154.278 115 154.607"
        stroke="#06612E" stroke-width="1.79893" stroke-miterlimit="10" stroke-linecap="round" />
    <path d="M117.174 151.891L124.908 162.272" stroke="#06612E" stroke-width="1.79893"
        stroke-miterlimit="10" stroke-linecap="round" />
    <path
        d="M131.047 107.991C129.835 110.202 127.134 111.045 125.061 109.838C123.132 108.716 122.443 106.166 123.502 104.056C124.378 102.312 126.158 101.362 127.888 101.517C128.166 101.536 128.444 101.474 128.688 101.338C128.932 101.202 129.132 100.999 129.262 100.752L139.312 82.4313C139.406 82.2437 139.568 82.0999 139.766 82.0302C139.964 81.9606 140.181 81.9706 140.371 82.0582C140.463 82.1092 140.543 82.1779 140.608 82.2603C140.672 82.3428 140.719 82.4372 140.747 82.5382C140.775 82.6392 140.782 82.7447 140.768 82.8484C140.754 82.9522 140.72 83.0522 140.667 83.1426L130.615 101.469C130.476 101.712 130.411 101.99 130.428 102.27C130.445 102.549 130.544 102.818 130.711 103.042C131.766 104.372 131.957 106.335 131.047 107.991Z"
        fill="#06612E" />
    <path
        d="M139.39 100.115C138.461 106.354 135.539 111.759 131.411 115.612C127.282 119.466 121.943 121.751 116.18 121.751C104.656 121.751 94.828 112.591 92.9707 100.115H139.39Z"
        fill="#42A5F5" />
    <path
        d="M47.235 51.8552C43.8023 51.8552 40.6151 51.2351 37.9848 50.1718C39.692 52.6127 40.6628 55.424 40.6628 58.4148C40.6628 64.792 36.2453 70.3486 29.7081 73.2595C29.5006 75.8219 28.696 78.3001 27.3586 80.4957C26.0212 82.6913 24.1883 84.5432 22.0066 85.9031L20.7006 86.7153L11.8474 74.3705L11.1067 73.3366C9.62435 71.2867 8.51242 68.9931 7.82129 66.5596C5.00442 56.5645 10.0013 45.8357 19.2052 41.4013C22.1299 40.0016 25.3337 39.2822 28.5761 39.2971H42.4219C45.7592 39.2961 49.0316 40.2193 51.8762 41.9645C54.7208 43.7097 57.0265 46.2086 58.5376 49.1842C55.6015 50.8437 51.6202 51.8552 47.235 51.8552Z"
        fill="#06612E" />
    <path
        d="M63.5922 76.5554L60.4933 78.3132V87.3347C60.4941 88.1165 60.3407 88.8907 60.0421 89.6132C59.7434 90.3356 59.3053 90.9922 58.7528 91.5452C58.2003 92.0983 57.5441 92.537 56.822 92.8363C56.0998 93.1357 55.3257 93.2897 54.5439 93.2897H47.614C46.6338 93.2894 45.6804 93.6094 44.8989 94.201C44.1174 94.7925 43.5506 95.6233 43.2849 96.5667L41.1316 104.201H12.8184L20.7022 86.7231L22.0069 85.9109C23.6233 84.9022 25.0525 83.6206 26.2308 82.1233H25.3343C24.0841 82.1233 22.857 81.7866 21.7819 81.1486C20.7067 80.5106 19.8233 79.5947 19.2243 78.4974C18.6253 77.4 18.333 76.1616 18.3779 74.9122C18.4229 73.6628 18.8035 72.4486 19.4798 71.3971C20.156 70.3456 21.103 69.4956 22.2212 68.9365C23.3394 68.3774 24.5876 68.1298 25.8346 68.2196C27.0815 68.3095 28.2813 68.7335 29.3078 69.4472C30.3342 70.1609 31.1496 71.1378 31.6681 72.2754C37.1125 69.1892 40.663 64.139 40.663 58.4183C40.663 55.4275 39.6922 52.6162 37.985 50.1753C40.6153 51.2373 43.8025 51.8587 47.2366 51.8587C51.6205 51.8587 55.6017 50.8473 58.5392 49.1934C59.8282 51.7286 60.4979 54.5333 60.4933 57.3774V66.4397C60.494 68.0462 61.0054 69.6109 61.9537 70.9077L64.1575 73.9195C64.3078 74.125 64.413 74.3599 64.4661 74.6089C64.5192 74.8579 64.5191 75.1153 64.4657 75.3642C64.4123 75.6131 64.3069 75.848 64.1563 76.0533C64.0058 76.2586 63.8135 76.4297 63.5922 76.5554Z"
        fill="#B4702F" />
    <path
        d="M53.4242 72.0982C54.1579 72.0982 54.7527 71.4186 54.7527 70.5804C54.7527 69.7421 54.1579 69.0625 53.4242 69.0625C52.6905 69.0625 52.0957 69.7421 52.0957 70.5804C52.0957 71.4186 52.6905 72.0982 53.4242 72.0982Z"
        fill="#06612E" />
    <path d="M60.4942 81.9537C60.4942 81.9537 57.9846 82.0211 55.9785 79.5156" stroke="#06612E"
        stroke-width="3.59786" stroke-miterlimit="10" />
    <path
        d="M51.9463 65.0051C53.9608 64.1027 55.3773 62.888 55.1103 62.292C54.8433 61.6959 52.9939 61.9443 50.9794 62.8466C48.965 63.749 47.5485 64.9637 47.8155 65.5597C48.0825 66.1558 49.9319 65.9075 51.9463 65.0051Z"
        fill="#06612E" />
    <path d="M29.0797 75.7216C29.0797 75.7216 28.3979 71.4626 23.791 72.2903" stroke="#06612E"
        stroke-width="3.59786" stroke-miterlimit="10" stroke-linecap="round" />
    <path d="M25.1465 75.7668L27.1048 72.8672" stroke="#06612E" stroke-width="3.59786"
        stroke-miterlimit="10" stroke-linecap="round" />
    <path
        d="M49.5944 93.2894H46.173C43.8961 93.29 41.6903 92.4962 39.936 91.0449L38.8418 90.1387L42.2843 100.121L43.1064 97.3057C43.441 96.153 44.1392 95.1393 45.0967 94.4156C46.0543 93.6918 47.22 93.2968 48.4203 93.2894H49.5944Z"
        fill="#06612E" />
    <path
        d="M66.9941 130.935L74.1331 117.318C76.9907 112.387 78.1592 108.922 82.1432 106.516L98.207 96.7836C98.3024 96.7246 98.4094 96.6871 98.5207 96.6736C98.6321 96.6601 98.745 96.6709 98.8517 96.7053C98.9584 96.7398 99.0564 96.7969 99.1388 96.8729C99.2213 96.9489 99.2862 97.0419 99.3292 97.1455L99.3629 97.2241C99.593 97.7699 99.6739 98.3672 99.5972 98.9546C99.5206 99.542 99.2891 100.098 98.9266 100.567L96.1785 104.527C96.001 104.783 95.8969 105.082 95.8777 105.393C95.8584 105.703 95.9247 106.013 96.0694 106.289C96.214 106.564 96.4314 106.795 96.698 106.956C96.9646 107.116 97.2701 107.201 97.5813 107.2L119.404 107.09C119.74 107.071 120.071 107.18 120.33 107.395C120.589 107.611 120.756 107.916 120.798 108.25V108.283C120.843 108.631 120.753 108.983 120.547 109.267C120.34 109.551 120.032 109.745 119.687 109.809L114.199 110.823L122.174 110.262C122.565 110.235 122.95 110.361 123.25 110.613C123.549 110.865 123.739 111.224 123.779 111.613V111.649C123.823 112.043 123.714 112.439 123.474 112.754C123.234 113.07 122.882 113.281 122.491 113.344L114.619 114.651L120.52 114.354C120.857 114.336 121.188 114.445 121.447 114.659C121.707 114.873 121.877 115.178 121.923 115.511V115.542C121.971 115.876 121.894 116.216 121.708 116.497C121.522 116.778 121.239 116.981 120.913 117.067L111.131 119.661C111.059 119.68 110.996 119.723 110.952 119.783C110.909 119.843 110.887 119.917 110.891 119.991C110.895 120.065 110.925 120.136 110.975 120.19C111.025 120.245 111.093 120.281 111.166 120.292L117.889 121.297C118.956 121.456 118.929 123.004 117.859 123.12L90.7846 125.097C90.3339 125.13 89.903 125.295 89.5464 125.573C89.1899 125.851 88.9236 126.228 88.7814 126.657L85.1761 137.555L66.9941 130.935Z"
        fill="#B4702F" />
    <path d="M116.292 110.74L109.455 111.503" stroke="#06612E" stroke-width="1.79893"
        stroke-miterlimit="10" stroke-linecap="round" />
    <path d="M115.946 114.613L110.188 115.32" stroke="#06612E" stroke-width="1.79893"
        stroke-miterlimit="10" stroke-linecap="round" />
    <path
        d="M120.319 108.91C120.566 108.535 120.463 108.032 120.088 107.785C119.714 107.538 119.21 107.641 118.963 108.015C118.716 108.39 118.819 108.894 119.194 109.141C119.568 109.388 120.072 109.284 120.319 108.91Z"
        stroke="#06612E" stroke-width="1.79893" stroke-miterlimit="10" stroke-linecap="round" />
    <path
        d="M121.634 115.949C121.595 116.105 121.511 116.246 121.392 116.355C121.273 116.463 121.124 116.533 120.965 116.557C120.806 116.581 120.643 116.557 120.498 116.488C120.352 116.419 120.231 116.308 120.148 116.17C120.066 116.032 120.026 115.872 120.034 115.712C120.043 115.551 120.099 115.396 120.195 115.267C120.291 115.138 120.424 115.041 120.576 114.988C120.727 114.934 120.892 114.927 121.047 114.967C121.255 115.02 121.433 115.153 121.543 115.337C121.653 115.521 121.686 115.741 121.634 115.949V115.949Z"
        stroke="#06612E" stroke-width="1.79893" stroke-miterlimit="10" stroke-linecap="round" />
    <path
        d="M118.517 122.252C118.534 121.864 118.233 121.535 117.845 121.517C117.456 121.5 117.127 121.801 117.11 122.189C117.092 122.578 117.393 122.907 117.782 122.924C118.17 122.942 118.499 122.641 118.517 122.252Z"
        stroke="#06612E" stroke-width="1.43981" stroke-miterlimit="10" stroke-linecap="round" />
    <path
        d="M123.468 111.993C123.422 112.175 123.323 112.338 123.183 112.464C123.044 112.589 122.871 112.67 122.686 112.697C122.5 112.723 122.311 112.695 122.142 112.614C121.973 112.533 121.832 112.404 121.736 112.243C121.641 112.082 121.595 111.897 121.605 111.71C121.615 111.523 121.68 111.343 121.792 111.193C121.904 111.043 122.058 110.929 122.234 110.867C122.411 110.804 122.602 110.796 122.783 110.842C122.904 110.872 123.017 110.926 123.117 111.001C123.217 111.075 123.301 111.169 123.364 111.276C123.428 111.383 123.47 111.501 123.488 111.624C123.505 111.747 123.499 111.873 123.468 111.993V111.993Z"
        stroke="#06612E" stroke-width="1.79893" stroke-miterlimit="10" stroke-linecap="round" />
    <path
        d="M98.5765 96.8418C98.7442 97.1703 98.7842 97.5493 98.689 97.9056C98.5938 98.2619 98.3701 98.5704 98.0609 98.7715C97.7518 98.9726 97.3791 99.0521 97.0148 98.9947C96.6504 98.9373 96.3203 98.7471 96.0879 98.4607"
        stroke="#06612E" stroke-width="1.79893" stroke-miterlimit="10" stroke-linecap="round" />
    <path
        d="M87.8446 134.67L87.0632 138.024L84.9758 137.536L79.4894 154.259C78.0901 158.525 75.3793 162.239 71.7439 164.872C68.1085 167.506 63.7342 168.923 59.2452 168.923H16.7677C5.82569 168.923 -2.18303 158.605 0.532839 148.004L10.8815 107.63C13.2761 100.941 20.1401 97.3496 27.0644 97.3496C30.4948 97.3492 33.8528 98.3354 36.7381 100.191C39.6234 102.046 41.9142 104.692 43.3372 107.813L59.7951 143.929L65.8174 133.057L64.1607 132.67L67.4854 125.604L87.8446 134.67Z"
        fill="#FFAFB1" />
    <path
        d="M50.9819 168.911C48.3972 168.911 45.8503 168.289 43.5555 167.1C41.2608 165.91 39.2853 164.187 37.7954 162.075L22.7852 140.807"
        stroke="#06612E" stroke-width="2.70006" stroke-miterlimit="10" stroke-linecap="round" />
    <path d="M59.7937 143.576L55.5039 150.787" stroke="#06612E" stroke-width="2.70006"
        stroke-miterlimit="10" stroke-linecap="round" />
    <path d="M84.976 137.539L73.334 134.816L84.3798 139.357L84.976 137.539Z" fill="#06612E" />
</svg>
    